# xmcd
#
# Track frame offsets: 
#        150
#        16709
#        28774
#        43227
#        59884
#        79276
#        96486
#        110169
#        131061
#        151516
#
# Disc length: 2176 seconds
#
# Revision: 1
# Processed by: cddbd v1.5.2PL0 Copyright (c) Steve Scherf et al.
# Submitted via: ExactAudioCopyFreeDBPlugin 1.0
#
DISCID=88087e0a
DTITLE=Bill Withers - Still Bill
DYEAR=1972
DGENRE=Soul
TTITLE0=Lonely Town, Lonely Street
TTITLE1=Let Me in to Your Life
TTITLE2=Who is He (What is He to You)
TTITLE3=Use Me
TTITLE4=Lean on Me
TTITLE5=Kissing My Love
TTITLE6=I Don't Know
TTITLE7=Another Day to Run
TTITLE8=I Don't Want You on My Mind
TTITLE9=Take It All In and Check It All Out
EXTD=
EXTT0=
EXTT1=
EXTT2=
EXTT3=
EXTT4=
EXTT5=
EXTT6=
EXTT7=
EXTT8=
EXTT9=
PLAYORDER=
